Coordinates
version=1
nRows=5
nColumns=40
inDegrees=yes

Units are S.I. units (second, meters, Newtons, ...)
If the header above contains a line with 'inDegrees', this indicates whether rotational values are in degrees (yes) or radians (no).

endheader
time	pelvis_tilt	pelvis_list	pelvis_rotation	pelvis_tx	pelvis_ty	pelvis_tz	hip_flexion_r	hip_adduction_r	hip_rotation_r	knee_angle_r	knee_angle_r_beta	ankle_angle_r	subtalar_angle_r	mtp_angle_r	hip_flexion_l	hip_adduction_l	hip_rotation_l	knee_angle_l	knee_angle_l_beta	ankle_angle_l	subtalar_angle_l	mtp_angle_l	lumbar_extension	lumbar_bending	lumbar_rotation	arm_flex_r	arm_add_r	arm_rot_r	elbow_flex_r	pro_sup_r	wrist_flex_r	wrist_dev_r	arm_flex_l	arm_add_l	arm_rot_l	elbow_flex_l	pro_sup_l	wrist_flex_l	wrist_dev_l
      2.40500000	    -36.45448494	      4.98641787	     -6.41739532	     -0.40014263	      0.61658883	     -0.90050204	    107.68797521	    -18.07342801	     10.35578043	    102.73189649	      1.79300984	     31.77960657	      0.00000000	      0.00000000	    105.51146305	    -30.25166199	      2.49671258	    104.54906929	      1.82472549	     38.26187410	      0.00000000	      0.00000000	    -19.30574048	     -4.97197726	      5.80358483	     16.69042058	    -54.15124655	     89.59987662	     89.96933414	     88.77587229	      0.00000000	      0.00000000	     21.30780954	    -57.10086970	     89.62101890	     96.27831420	     88.58067426	      0.00000000	      0.00000000
      2.41000000	    -36.45243509	      4.98372846	     -6.40769354	     -0.40013693	      0.61648538	     -0.90044170	    107.69373346	    -18.08002743	     10.35673965	    102.76379365	      1.79356655	     31.79952409	      0.00000000	      0.00000000	    105.52185159	    -30.23833644	      2.52259600	    104.56754407	      1.82504793	     38.26896992	      0.00000000	      0.00000000	    -19.31252507	     -4.97025491	      5.77822100	     16.70380351	    -54.14077858	     89.60044838	     89.95237533	     88.78304664	      0.00000000	      0.00000000	     21.31527507	    -57.09356983	     89.62287366	     96.25180646	     88.57375866	      0.00000000	      0.00000000
      2.41500000	    -36.46896336	      4.90657589	     -6.34627423	     -0.40008698	      0.61632283	     -0.90050897	    107.68382101	    -18.16536609	     10.29453067	    102.79487000	      1.79410894	     31.83637741	      0.00000000	      0.00000000	    105.59937230	    -30.14497641	      2.64368143	    104.58484313	      1.82534986	     38.21770644	      0.00000000	      0.00000000	    -19.30472894	     -4.86223367	      5.73629269	     16.70783276	    -54.17439498	     89.60200299	     89.96872373	     88.78000472	      0.00000000	      0.00000000	     21.28719752	    -57.05762327	     89.62426056	     96.26447283	     88.58632774	      0.00000000	      0.00000000
      2.42000000	    -36.54221412	      4.97969109	     -6.33752847	     -0.40015406	      0.61610136	     -0.90050378	    107.83267657	    -18.13835749	     10.38524420	    102.82198151	      1.79458212	     31.66174574	      0.00000000	      0.00000000	    105.63168531	    -30.13447021	      2.55600957	    104.58214891	      1.82530284	     38.38635225	      0.00000000	      0.00000000	    -19.19186563	     -4.92978173	      5.71781551	     16.68656248	    -54.06044005	     89.60809445	     89.70899557	     88.73392990	      0.00000000	      0.00000000	     21.32266680	    -56.98821306	     89.63670581	     96.04246695	     88.38845553	      0.00000000	      0.00000000
      2.42500000	    -36.53943140	      5.01036893	     -6.52364201	     -0.40025074	      0.61589155	     -0.89989918	    107.81925662	    -17.90891826	     10.34187501	    102.78940577	      1.79401357	     31.83414653	      0.00000000	      0.00000000	    105.69360417	    -30.38522392	      2.61504842	    104.64143097	      1.82633750	     38.25537402	      0.00000000	      0.00000000	    -19.18180872	     -5.05113818	      5.82513822	     16.69359325	    -54.09175805	     89.60404197	     90.02955512	     88.75448033	      0.00000000	      0.00000000	     21.25470289	    -57.17258355	     89.62752300	     96.35516936	     88.56792772	      0.00000000	      0.00000000
